# xmcd CD database file
#
# Track frame offsets:
#	150
#	14647
#	28968
#	39169
#	52424
#	62304
#	84627
#	97811
#	119421
#	133160
#	144979
#	164394
#	181276
#	199421
#	219922
#	240873
#	258971
#	271644
#	286675
#	299921
#
# Disc length: 4185 seconds
#
# Revision: 0
# Processed by: cddbd v1.5.2PL0 Copyright (c) Steve Scherf et al.
# Submitted via: CDex 1.70beta2
#
DISCID=24105714
DTITLE=Country Hits - 100 Essential Tracks Country Hits CD 3
DYEAR=2009
DGENRE=Country
TTITLE0=John Denver - Take Me Homme Country Roads
TTITLE1=Eddie Rabbitt - I Love A Rainy Night
TTITLE2=Kris Kristofferson - Help Me Make It Through The Night
TTITLE3=Glen Campbell - Honey Come Back
TTITLE4=Anne Murray - Snowbird
TTITLE5=Guy Clark - L.A. Freeway
TTITLE6=Crystal Gayle - Talkin I Your Sleep
TTITLE7=Merle Haggard - Pancho And Lefty
TTITLE8=The Highwaymen - Highwayman
TTITLE9=Johhny Paycheck - Take This Job And Shove
TTITLE10=Restless Heart - I'll Still Be Loving You
TTITLE11=Ronnie Milsap - Smokey Mountain Rain
TTITLE12=Mandy Barnett - Warfaring Stranger
TTITLE13=Lari Withe - Now I Know
TTITLE14=Lorrie Morgan - Something In Red
TTITLE15=Diamond Rio - You're Gone
TTITLE16=Confederate Railroad - She Took It Like A Man
TTITLE17=Sylvia - Noboby
TTITLE18=Mickey Gilley - True Love Ways
TTITLE19=Dolly Parton - I Will Always Love You
EXTD=YEAR: 2009
EXTT0=
EXTT1=
EXTT2=
EXTT3=
EXTT4=
EXTT5=
EXTT6=
EXTT7=
EXTT8=
EXTT9=
EXTT10=
EXTT11=
EXTT12=
EXTT13=
EXTT14=
EXTT15=
EXTT16=
EXTT17=
EXTT18=
EXTT19=
PLAYORDER=
